<?xml version="1.0" standalone="no"?>
<!DOCTYPE svg PUBLIC "-//W3C//DTD SVG 20010904//EN"
 "http://www.w3.org/TR/2001/REC-SVG-20010904/DTD/svg10.dtd">
<svg version="1.0" xmlns="http://www.w3.org/2000/svg"
 width="260.000000pt" height="260.000000pt" viewBox="0 0 260.000000 260.000000"
 preserveAspectRatio="xMidYMid meet">
<metadata>
Created by potrace 1.14, written by Peter Selinger 2001-2017
</metadata>
<g transform="translate(0.000000,260.000000) scale(0.100000,-0.100000)"
fill="#000000" stroke="none">
<path d="M1248 2125 c-2 -2 -19 -6 -38 -9 -122 -20 -229 -85 -312 -190 l-40
-51 -107 0 c-92 0 -113 -3 -155 -24 -61 -30 -128 -98 -161 -164 -21 -44 -31
-53 -82 -73 -169 -69 -296 -220 -337 -402 -21 -91 -14 -268 13 -352 51 -158
157 -270 319 -339 111 -46 139 -48 957 -46 681 1 778 3 837 18 191 47 324 140
396 275 48 91 62 161 58 287 -7 170 -48 278 -140 371 -46 45 -126 94 -154 94
-5 0 -9 17 -10 37 -2 62 -44 157 -104 236 -75 101 -183 151 -326 152 l-83 0
-48 46 c-93 89 -246 142 -402 138 -43 -1 -80 -3 -81 -4z m221 -160 c79 -20
126 -49 208 -126 l42 -39 113 -3 c86 -2 121 -8 148 -21 83 -44 152 -119 165
-181 4 -16 9 -64 12 -105 3 -41 9 -80 14 -86 5 -6 35 -16 66 -23 71 -16 112
-40 148 -87 43 -56 66 -130 72 -225 14 -221 -73 -344 -307 -436 -41 -16 -110
-18 -819 -21 -768 -3 -774 -3 -845 18 -174 53 -250 122 -319 290 -24 59 -31
207 -13 275 41 156 160 272 314 306 57 13 82 37 82 77 0 50 59 113 128 138 50
18 128 17 190 -1 29 -9 57 -13 63 -9 6 3 26 30 44 58 70 110 150 172 255 199
67 18 176 19 239 2z"/>
</g>
</svg>
